# xmcd
# Track frame offsets:
# 225
# 16536
# 30339
# 46260
# 59896
# 76151
# 91571
# 103145
# 117116
# 133873
# 152246
#
# Disc length: 2234 seconds
# Revision: 0
# Processed by: cddbd v1.4PL0 Copyright (c) Steve Scherf et al.
# Submitted via: VisiTrax 2.9.5.180 - For more info visit www.synapsa.com
#
DISCID=7e08b70b
DTITLE=Greg Windham - She knows what to do
DYEAR=1999
DGENRE=
TTITLE0=She knows what to do
TTITLE1=It just ain't right
TTITLE2=No regrets
TTITLE3=Long legged readhed
TTITLE4=When she cries
TTITLE5=Christmas in an airport
TTITLE6=That look
TTITLE7=Loud, clear and cold
TTITLE8=Without your love
TTITLE9=In my book
TTITLE10=Highway 98
EXTD=
EXTT0=
EXTT1=
EXTT2=
EXTT3=
EXTT4=
EXTT5=
EXTT6=
EXTT7=
EXTT8=
EXTT9=
EXTT10=
PLAYORDER=
